# xmcd CD database file
#
# Track frame offsets:
#	150
#	17190
#	29165
#	39330
#	52027
#	58627
#	75037
#	85742
#	97580
#	108835
#	112877
#	129490
#	147237
#	162932
#	182777
#	190530
#	198622
#
# Disc length: 2914 seconds
#
# Revision: 1
# Processed by: cddbd v1.5.2PL0 Copyright (c) Steve Scherf et al.
# Submitted via: CDex 1.51
#
DISCID=d20b6011
DTITLE=Ansambl vokalnih solista MADRIGAL - Hrvatske bozicne popijevke
DYEAR=1900
DGENRE=
TTITLE0=Radujte se narodi
TTITLE1=Kyrie Eleison
TTITLE2=Svim na zemlji
TTITLE3=Dvorani neba
TTITLE4=O, pastiri, cudo novo
TTITLE5=Rodio se bog i covjek
TTITLE6=Kad djeva milost dobila
TTITLE7=U to vrijeme godista
TTITLE8=Veselje ti navjescujem
TTITLE9=Bog se rodi
TTITLE10=Veseli se, Majko bozja
TTITLE11=O, Betleme
TTITLE12=Dete milo
TTITLE13=Spavaj sinko
TTITLE14=Zdravo budi, mladi kralju
TTITLE15=Sve krscanstvo je veselo
TTITLE16=Narodi nam se
EXTD=
EXTT0=
EXTT1=
EXTT2=
EXTT3=
EXTT4=
EXTT5=
EXTT6=
EXTT7=
EXTT8=
EXTT9=
EXTT10=
EXTT11=
EXTT12=
EXTT13=
EXTT14=
EXTT15=
EXTT16=
PLAYORDER=
